<svg xmlns="http://www.w3.org/2000/svg" xml:space="preserve" id="Layer_1" x="0" y="0" version="1.1" viewBox="0 0 493 200">
  <style>
    .st0{fill:#fff}
  </style>
  <g id="Layer_2_1_">
    <g id="Layer_1-2">
      <path d="M131 46a6 6 0 0 1-12 0c0-3 6-13 6-13s6 10 6 13zM89 4s4 7 8 9 14 3 14 3l-2 6s-11-1-16-4-8-9-8-9l4-5z" class="st0"/>
      <ellipse cx="95.2" cy="30.7" class="st0" rx="4" ry="5.2"/>
      <path d="M102 165c-7 0-27-9-27-9l18 2s-19-22-18-26c10 0 28 4 28 4s-17-21-16-26 5-10 5-10-2-2-10 4c5-13 22-27 28-32-3-3-7-4-11-5l1-1c17-5 12-27 12-27s-7 23-42 7l10-4-2-3s-12 3-14 2-9-3-8-9c2-11 14-15 13-17C60 6 46 0 46 0l-2 7s11 1 16 8c-5 2-22 25-2 31-27 5-28-14-28-14s-7 18 6 27c-5 4-21 17-28 33-8 17-8 23-8 23l9-7s-12 26 5 42c-2-7 2-13 2-13s2 24 5 27c0-8 6-20 6-20s2 4 1 14-3 23-1 24c9-11 17-6 17-6s3 16-4 23c3 3 37-1 48-13l10-12c0 1 1 7 2 6 10-8 17-16 21-23-8 5-17 8-19 8zm-69-50c-8-6 5-22 5-22s-5 11-4 17l8-4s-5 7-9 9zm18 18c-9-4-1-23-1-23s-1 12 1 17l7-6s-4 9-7 12zm12-73h2l15 6h-5c-6 0-8-4-12-6z" class="st0"/>
      <path d="M113 104s-13 16-6 22c4-2 10-9 10-9l-8 4c-1-6 4-17 4-17zM192 90c5-6 6-10 6-14 0-7-4-13-11-15l-5-1-9 2c-7 2-14 6-16 9v3l1 1 3 3 2-1 6-5 12-4h8c3 1 3 5 2 7l-5 10a125 125 0 0 1-16 14l4-12c2-9 2-9 1-12l-2-2h-2l-2 3-2 6-1 3-6 29c-1 2 0 3 1 5l-2 3c-3 2-5 6-5 10 1 5 5 8 9 8 4 1 7 0 11-1 6-3 12-9 15-14v-11c-2-5-6-7-10-8l-2-1 2-1 13-14zm-10 23 2 4-6 8c-3 3-8 6-13 7h-3l3-5 2-4v-9l1-2c4 0 10-1 14 1zM348 88c-1-2-3-4-5-4l-6 3-3 5-2 3 1-6a189 189 0 0 1 7-25l-3-4c-2-1-3 0-5 3l-2 5-1 5-2 8a229 229 0 0 0-5 20l-2 3c-4 6-10 13-17 13-3 0-5-4-5-7l2-1 9-6c2-2 5-5 5-7s-1-5-4-5c-2 0-4 3-5 4l-8 7h-2l2-9 3-12 4-13-1-5c-1-2-3-3-5-2l-1 3-2 3-1 3-2 9-4 19v1l-14 14c-6 5-9 6-12 6-1 1-3 0-3-1-1-3 0-6 1-9v-1l2-3 3-4c2-4 4-6 5-6 0-1 0-1 0 0l-1 4c-1 2 0 4 1 6l3 3 1-1 1-1v-3c2-5 2-13-4-16-2-1-4 0-6 1s-5 4-6 7a46 46 0 0 0-3 4l-10 16h-1v-1l4-11 1-1v-5l-2-3-3-1-1-1c-2-3-6-5-8-5l-6 3a45 45 0 0 0-15 21l-3 5-4 5-4 4c-2 0 0-6 0-7l2-11a224 224 0 0 1 9-36v-7l-2-2c-3-1-3-1-5 5l-10 40c-1 8-6 23 4 27 5 1 10-5 12-7l2-3 4 3c2 1 5-1 7-3l10-11 1-1v2l1 4 1 2c2 2 4 4 6 4s4-2 7-5l1 1c1 3 5 6 8 7l11-2 11-11h1l-1 8 1 5 1 2 2 1 1 1 2-1v-1a66 66 0 0 1 2-17v1c2 5 6 11 12 11 5 0 10-3 14-7v1l1 3 1 2c2 3 5 5 9 6h3c4-1 7-4 10-10a58 58 0 0 0 6-25l-1-6zM239 99a432 432 0 0 1-18 19l3-8c4-7 10-13 14-15h2c1 1 1 2-1 4zm100 9c-2 6-5 12-8 13h-4l1-5 8-13 6-8c0-1 0-1 0 0 0 2-1 9-3 13zM446 99h2c1-1 0-4-1-5-5-6-14 0-18 4l-1 1v-3l1-7-2-2h-3l-3 7-2 8-8 13h-1v-1l4-11 1-1v-3l-1-2-1-3-3-1-1-1c-2-3-6-5-8-5l-6 3-10 10v1l-12 12-7 5-6 2c-4-1-2-7-2-9l1-1 1 1 2 1c2 2 5 1 7 0l6-10 3-6 1-3c0-2-1-3-3-3l-2-1h-2l-5-2c-2 0-5 2-6 4l-5 7c-3 5-5 11-5 17l3 7a14 14 0 0 0 7 5c6 1 11-2 15-6l2-2v2l6 6c3 1 6-1 8-3l10-11 1-1v2l1 4 1 2c1 2 4 4 6 4l5-3v3l3 3 3 1 1-5 5-10c3-5 7-10 12-13 2-1 4-2 6-1zm-84 4 2-3 3-4 3-2-1 2a67 67 0 0 1-6 9l-1-1v-1zm42-4a432 432 0 0 1-18 19l3-8c4-7 9-13 14-15h2c1 1 1 2-1 4zM492 104c0-1-1-3-3-3-2-1-3-1-3 1a64 64 0 0 1-10 15l1-4v-2l1-1v-3l5-20 3-10c1-3 3-7 2-10l-1-1-4-2c-1 0-2 1-2 3-1 3-4 10-9 17l-1 3-1-1c-3-1-4-2-6-1l-6 3a49 49 0 0 0-9 14l-5 13c-1 5 0 9 4 12 1 2 3 2 5 1l8-8 9-15 1-1-1 4v16l5 4h3l5-5c4-5 7-10 9-16l1-1-1-2zm-24-11-2 2a308 308 0 0 1-14 21l3-7 7-11 5-6 1 1z" class="st0"/>
    </g>
  </g>
</svg>
