<svg xmlns="http://www.w3.org/2000/svg" viewBox="0 0 49 48">
  <g data-name="Layer 2">
    <g data-name="Layer 1">
      <path d="M28 0h2v7a1 1 0 0 0 1 1 20 20 0 0 1 2 1V8l5-3V4l6 6v1l-4 4a1 1 0 0 0 0 1l1 2a1 1 0 0 0 1 1h2l5-1v11h-6a1 1 0 0 0-1 1 22 22 0 0 1-1 2 1 1 0 0 0 0 1l4 4-7 7-4-3a1 1 0 0 0-1 0 24 24 0 0 1-2 1 1 1 0 0 0-1 1v4l-1 1h-9v-6a1 1 0 0 0-1-1l-2-1a1 1 0 0 0-1 0l-1 1-4 3-7-7 4-4a1 1 0 0 0 0-1l-1-2a1 1 0 0 0-1 0l-6-1V18h5c2 0 3 0 3-2a1 1 0 0 0 0-1l-4-5 6-6 6 3a1 1 0 0 0 0 1 15 15 0 0 1 2-1 1 1 0 0 0 0-1l1-5 1-1h8Zm15 37-4-4a1 1 0 0 1 0-1l2-4 4-1h2v-7h-2l-4 1a1 1 0 0 1-1-1l-2-4v-1l3-3 1-2-4-3-5 4-4-3a1 1 0 0 1-1 0V2h-8v5a1 1 0 0 1 0 1l-4 2-3-3-2-1-4 4v1l3 4a1 1 0 0 1 0 1l-2 3-4 1H2v7l5 1a1 1 0 0 1 1 1l2 3v1l-2 3-2 1 5 5h1l4-4a1 1 0 0 1 1 0 232 232 0 0 1 5 2v6h6v-5a1 1 0 0 1 1 0l5-3 4 4Z"/>
      <path fill="#fff" d="m43 37-5 5-4-4-5 3a1 1 0 0 0-1 0v5h-6v-6h-1l-4-2a1 1 0 0 0-1 0l-4 4h-1l-5-5 2-1 2-3v-1l-2-3a1 1 0 0 0-1-1l-5-1v-7h2l4-1 2-3a1 1 0 0 0 0-1l-3-4v-1l4-4 2 1 3 3 4-2a1 1 0 0 0 0-1V2h8v6a1 1 0 0 0 1 0l4 3 5-4 4 3-1 2-3 3v1l2 4a1 1 0 0 0 1 1l4-1h2v7h-2l-4 1-2 4a1 1 0 0 0 0 1l4 4Zm-7-13v-4a1 1 0 0 0 0-1l-6-6a1 1 0 0 0-1-1h-9a1 1 0 0 0 0 1l-7 6a1 1 0 0 0 0 1v8a1 1 0 0 0 0 1l7 6a1 1 0 0 0 0 1l9-1a1 1 0 0 0 1 0l6-6a1 1 0 0 0 0-1v-4Z"/>
      <path d="M36 24v4a1 1 0 0 1 0 1l-6 6a1 1 0 0 1-1 0h-9l-7-6a1 1 0 0 1 0-1v-8a1 1 0 0 1 0-1l7-6a1 1 0 0 1 0-1h9a1 1 0 0 1 1 1l6 6a1 1 0 0 1 0 1v4Zm-2 0v-4l-5-5a1 1 0 0 0-1-1h-7a1 1 0 0 0-1 1l-5 5v8l5 5a1 1 0 0 0 1 1h7a1 1 0 0 0 1-1l5-5v-4Z"/>
    </g>
  </g>
</svg>
