<svg xmlns="http://www.w3.org/2000/svg" viewBox="0 0 33 32">
  <defs/>
  <g id="Layer_2" data-name="Layer 2">
    <g id="Layer_1-2" data-name="Layer 1">
      <path fill="#b8b0aa" d="M3 19v-2L7 7c0-2 1-3 4-4 4 0 8 0 12-2h2v4a3 3 0 0 0-2 1L12 8l-2 2-1 4c-1 2-1 3 1 5a38 38 0 0 1 7 6 2 2 0 0 1 0 2l-4-2-10-6Z"/>
      <path fill="#f4e9e2" d="M23 6a3 3 0 0 1 2-1l2 3 3 12v2c-4 1-8 3-10 7h-2l-1-2a2 2 0 0 0 0-2l6-3c1-1 3-1 2-3-1-4 0-9-2-13Z"/>
      <path fill="#d0c7c0" d="M23 6c2 4 1 9 2 13 1 2-1 2-2 3l-6 3a38 38 0 0 0-7-6c-2-2-2-3-1-5l1-4 2-2 11-2Z"/>
      <path fill="#838383" d="M19 32h-2c-5-5-11-8-17-10v-3L7 3c4-1 9 0 14-3h5v1l-9 3H8L4 16l-1 4 16 11Z"/>
      <path fill="#5e5e5e" d="M33 22c-4 4-9 6-14 9L3 20l1-4 2 1c5 3 7 10 14 8h2l2-2h2l1-1c5-4 0-7-1-10v-2l-1-1-1-4c-2-3-5 0-7-1l9-3Z"/>
      <path fill="#5c5c5c" d="M17 4c2 1 5-2 7 1L10 7 6 17l-2-1L8 4Z"/>
      <path d="M27 22c2-4-1-7-1-10 1 3 6 6 1 10ZM26 10l-1-1ZM24 23h2ZM20 25h2Z" class="cls-7"/>
    </g>
  </g>
</svg>
