<svg xmlns="http://www.w3.org/2000/svg" viewBox="0 0 33 32">
  <defs/>
  <g id="Layer_2" data-name="Layer 2">
    <g id="Layer_1-2" data-name="Layer 1">
      <path fill="#3f3f3f" d="M10 5 5 19l14 10 12-8-6-18-15 2z"/>
      <path fill="#838383" d="M19 32h-2c-5-5-11-8-17-10v-3L7 3c4-1 9 0 14-3h5v1l-9 3H8L4 16l-1 4 16 11Z"/>
      <path fill="#5e5e5e" d="M33 22c-4 4-9 6-14 9L3 20l1-4 2 1c5 3 7 10 14 8h2l2-2h2l1-1c5-4 0-7-1-10v-2l-1-1-1-4c-2-3-5 0-7-1l9-3Z"/>
      <path fill="#5c5c5c" d="M17 4c2 1 5-2 7 1L10 7 6 17l-2-1L8 4Z"/>
      <path d="M27 22c2-4-1-7-1-10 1 3 6 6 1 10ZM26 10l-1-1ZM24 23h2ZM20 25h2Z" class="cls-5"/>
    </g>
  </g>
</svg>
