<svg xmlns="http://www.w3.org/2000/svg" xml:space="preserve" id="Layer_1" x="0" y="0" version="1.1" viewBox="0 0 770 200">
  <g id="Layer_2_1_">
    <g id="Layer_1-2">
      <path fill="white" d="M0 88c1-3 2-6 5-8 4-3 10-4 14-1 5 2 8 6 8 11v39c0 7-5 12-12 13s-13-3-15-10V88zM116 82v62c0 7-6 13-14 13-6 1-11-4-12-10l-1-4V35l-1-15c0-7 6-13 13-13h1c7 0 13 5 13 13v62h1zM304 32h22v15h-8v21c0 11-6 20-16 25-11 4-23 2-30-6l-1-1-5 4c-17 12-40 1-42-19l-1-22v-2h-7V32h21v36c0 7 6 13 13 13h2c6 0 12-6 12-14V33h14v34c0 7 4 12 10 13 7 2 14-2 16-9V32zM614 36V8h21v15h-7v39c0 9-4 17-10 24-10 8-21 11-34 7-12-4-20-13-21-26-3-18 9-34 27-37 8-2 16 0 22 5l2 1zm-19 7a19 19 0 1 0 0 38 19 19 0 0 0 0-38zM72 52v39c0 7-6 13-13 13-7 1-13-5-14-12V14c0-7 4-12 10-14 11-2 17 6 17 13v39zM548 78h7v14h-21v-3l-2 1c-14 9-38 6-47-14-9-21 4-44 27-47 17-2 34 11 35 29l1 16v4zm-33-35c-10 0-19 8-19 19s9 19 19 19 19-9 19-19-8-19-19-19zM397 78h7v14h-21v-3l-10 4c-13 4-30 0-38-15-11-22 2-46 26-49 19-2 36 14 36 33v16zm-52-16c0 10 8 18 19 19 10 0 18-8 19-19a19 19 0 0 0-38 0zM701 63h-51c0 6 3 11 8 14 9 7 22 4 26-5 1-2 3-3 5-3h12c-2 6-5 12-9 16a33 33 0 0 1-56-25c0-17 15-32 35-31 18 2 30 16 30 34zm-17-9c-2-7-9-11-15-11-8 0-14 5-16 11h31zM416 92V47h-7V32h21v2l7-4a27 27 0 0 1 34 27v35h-14V56c-1-7-7-13-14-13-7 1-13 7-13 14v35h-14zM158 125v27c0 6-4 11-9 13-6 1-12-1-15-6l-2-7V97c0-7 5-12 12-13 7 0 13 4 14 11v30zM72 153v24c0 6-6 12-12 13-8 0-14-5-15-12v-49c0-6 4-11 10-13 9-2 17 4 17 13v24zM770 32v15h-6l-2 1-19 43-2 1h-9l-2-1-19-43c-1-1-2-2-3-1h-5V32h15l2 1 16 37v1l4-9 13-29 2-1h15zM444 182v5c-4 2-8-1-8-5v-6l-3 4a27 27 0 0 1-42-2c-10-14-9-33 3-45 10-9 25-9 36 1l5 6v-37h6v76c0 2 1 3 3 3zm-8-24v-7l-3-9-5-5c-9-7-21-7-29 0a28 28 0 0 0-1 40c5 4 11 7 17 6 8 0 14-4 18-10 2-2 3-5 2-7l1-8zM480 156c0-11 5-21 16-27 12-6 27-3 36 9 10 13 8 31-3 43-14 13-36 9-45-7-3-5-4-11-4-18zm5 1c0 7 2 12 5 17 8 11 23 13 33 4 11-10 13-27 3-38v-1c-9-9-22-10-31-2-6 5-10 12-10 20zM364 127h6v52c0 2 0 3 2 3v5c-3 1-6 0-7-3v-10l-1 1c-6 8-13 13-23 13-11 1-18-4-20-15l-1-10v-36h6v35c0 5 0 9 2 12 2 6 7 9 13 9 9 0 19-6 23-17v-39zM203 122v7a13 13 0 0 1-26-2v-11c0-7 6-12 13-12s13 5 13 12v6zM222 180l3-5c4 4 8 6 13 8 6 1 13 2 19-1 4-2 7-5 7-10 0-4-1-7-5-8l-13-5-11-3c-9-3-12-8-9-18 2-6 6-9 12-10 8-3 16-2 23 1 3 1 5 3 7 6l-3 3-2-2c-5-4-12-5-19-5l-7 2c-5 2-7 7-6 12 0 3 2 5 4 6l11 3 14 4 2 1c12 5 9 19 2 25-3 2-7 4-12 4-9 2-17 0-25-5l-5-3zM286 132h-9v-5h9v-20h5v20h14v5h-13v2l-1 41c0 6 5 8 9 8l7-2 1-1 2 5c-5 3-11 5-17 3-4-1-7-5-7-10v-46zM116 185a13 13 0 0 1-26 3v-7c2-7 8-11 15-10 6 1 11 6 11 13v1zM465 188h-5v-61h5v61zM460 103h5v11h-5v-11z" class="st0"/>
    </g>
  </g>
</svg>
