<svg xmlns="http://www.w3.org/2000/svg" xml:space="preserve" id="Layer_1" x="0" y="0" version="1.1" viewBox="0 0 513 200">
  <style>
    .st0{fill:#fff}
  </style>
  <g id="Layer_2_1_">
    <g id="Layer_1-2">
      <path d="M69 41c0-3-1-5-4-7L17 4c-1-2-4-3-6-4L6 1C3 2 1 4 1 8v71l-1 4 1 1v67c0 4 3 5 8 5 5 1 7-1 8-3l49-34c2-2 3-5 3-8s-1-5-4-7L24 80l42-31c2-2 3-5 3-8zm-51 92V97l28 16-28 20zm0-69V24l29 19-29 21zM88 1c-6 0-9 3-9 8v139c0 6 3 8 9 8 5 0 8-2 8-8V9c0-5-3-8-8-8zM195 3c-5-4-8-4-12 1l-60 69V61l39-47c3-4 3-8-2-11-4-4-8-4-11 1l-26 31V9c0-5-3-8-8-8-6 0-8 2-8 8v139c0 5 2 8 8 8 5 0 8-3 8-8V99l73-85c3-4 3-8-1-11zM245 97l37-44a8 8 0 0 0-1-12L220 2c-2-2-6-2-8 0-3 1-5 4-5 7v139c0 6 3 8 9 8 5 0 8-2 8-8V24l40 26-35 41c-3 4-3 7-1 11l39 51c2 2 4 3 7 3l4-1c5-4 5-7 2-12l-35-46z" class="st0"/>
      <path d="M340 60V9c0-5-3-8-8-8-6 0-9 2-9 8v48l-41 22c-5 2-6 6-3 11 1 2 4 4 7 4l4-1 33-18v8l-39 22c-5 3-6 7-3 11 1 3 4 5 7 5l4-2 31-17v46c0 6 3 8 8 8 6 0 9-2 9-8V60zM415 42c-4-2-7-1-9 2l-39 47V9c0-6-3-9-8-9-6 0-9 3-9 9v106c1 3 2 6 6 7 4 2 7 1 9-2l39-47v75c0 6 2 8 8 9 5 0 8-3 8-9V50c0-4-1-7-5-8zM510 35 478 3l-3-3h-4c-4 0-7 2-7 5l-31 32c-4 4-4 8 0 12l6 2 6-3 18-19v119c0 6 3 9 8 9 6 0 9-3 9-9V28l18 19c4 4 8 4 12 0s4-8 0-12zM83 186c2-1 4-3 4-6l-2-5-5-2h-6v27h7l5-2 1-6-1-4-3-2zm-6-10h4l2 1v6c-1 1-2 2-4 1h-2v-8zm6 19-1 2h-5v-10h2l4 1 1 4-1 3zM135 174h4v26h-4zM188 200h3v-13h5v-2h-5v-9h7v-2h-10zM258 181l-2-6-6-1h-5v26h4v-13h2l4 13h3l-3-13c2-1 3-3 3-6zm-5 3-3 1h-1v-9h1l3 1 1 1v2c1 2 0 3-1 4zM313 173l-5 2-2 7v9c0 3 0 5 2 7l5 2 6-2 1-6v-10c0-3 0-5-2-7-1-1-2-2-5-2zm4 19-1 4-3 1-3-1-1-4v-11l1-4 3-1 3 1 1 4v11zM377 186l-4-3-2-2v-2l1-2 2-1 2 1 1 4 3-1-1-5c-3-2-7-2-10 0l-1 4v4l2 2 5 4 2 2 1 3-1 2-2 1-3-1-1-5-3 1c0 2 0 4 2 6 2 3 6 3 9 0l2-4-1-4-3-4zM427 176h4v24h4v-24h4v-2h-12z" class="st0"/>
    </g>
  </g>
</svg>
