<svg xmlns="http://www.w3.org/2000/svg" viewBox="0 0 31 32">
  <defs>
    <style>
      .cls-1{fill:#8a8c8c}.cls-2{fill:#4a4e54}.cls-3{fill:#828485}.cls-4{fill:#696a6a}.cls-5{fill:#adadac}.cls-6{fill:#43464a}
    </style>
  </defs>
  <g id="Layer_2" data-name="Layer 2">
    <g id="Layer_1-2" data-name="Layer 1">
      <path d="M31 3v1l-1 2v18l1 2v1c-2 0-1 1-1 2v1h-1l-1-2v-1a8 8 0 0 0 1-2V2h1Z" class="cls-1"/>
      <path d="m0 27 1-2V7L0 6V4l1-1V2h1v25a6 6 0 0 1 0 2Z" class="cls-2"/>
      <path d="M29 0v1h-4l1-1Z" class="cls-3"/>
      <path d="M6 0v1H4V0Z" class="cls-1"/>
      <path d="M31 29h-1c0-1-1-2 1-2Z" class="cls-4"/>
      <path d="M31 6h-1l1-2Z" class="cls-2"/>
      <path d="M0 25h1l-1 2ZM0 3h1L0 4Z" class="cls-3"/>
      <path d="M4 0v1H2l1-1Z" class="cls-4"/>
      <path d="M5 32h2ZM28 32h-3Z" class="cls-5"/>
      <path d="M2 29a6 6 0 0 0 0-2V2h23l1 1v2a6 6 0 0 0 2 1V5h1v20a8 8 0 0 1-1 2 2 2 0 0 0-2-1l-1 2h3l1 2-2-1H4a6 6 0 0 0-2 0Zm3-1v-2a6 6 0 0 0-2 0 5 5 0 0 0 1 3l2-1ZM6 6V4a1 1 0 0 0-2 0L3 6a2 2 0 0 0 3 0Zm18 19 1-1V7a4 4 0 0 0-2-1H7L6 7h1v17l1 1a10 10 0 0 0 2 0l13 1a5 5 0 0 0 1-1Z" class="cls-3"/>
      <path d="M2 29a6 6 0 0 1 2 0h23l2 1h1l-2 2h-3l-1-1H10a6 6 0 0 0-3 1H5Z" class="cls-6"/>
      <path d="m26 3-1-1H1l1-1h27l1 1h-1l-2 1Z" class="cls-5"/>
      <path d="M26 3h3v2h-1v1l-2-2ZM26 26a2 2 0 0 1 2 1v1c-2 0-2 0-2-2Z" class="cls-4"/>
      <path d="M29 3h-2l2-1v1Z" class="cls-3"/>
      <path d="M28 5h1ZM28 27Z" class="cls-2"/>
      <path d="M7 24V7h17v18Z" class="cls-4"/>
      <path d="M24 25V7h1v17l-1 1Z" class="cls-2"/>
      <path d="M24 25a5 5 0 0 1-1 1l-13-1a10 10 0 0 1-2 0l-1-1Z" class="cls-5"/>
      <path d="M25 7H6l1-1h16a4 4 0 0 1 2 1Z" class="cls-6"/>
      <path d="M4 4a1 1 0 0 1 2 0v2C5 6 3 6 4 4ZM3 26a6 6 0 0 1 2 0v2h1c-2 0-3 0-3-2Z" class="cls-4"/>
      <path d="M26 26c0 2 0 2 2 2h-3l1-2ZM4 4C3 6 5 6 6 6a2 2 0 0 1-3 0l1-2ZM3 26c0 2 1 2 3 2l-2 1a5 5 0 0 1-1-3ZM26 4l2 2a6 6 0 0 1-2-1V4ZM5 28v-1Z" class="cls-2"/>
    </g>
  </g>
</svg>
