<svg xmlns="http://www.w3.org/2000/svg" xml:space="preserve" id="Layer_1" x="0" y="0" version="1.1" viewBox="0 0 200 200">
  <style>
    .st0{fill:#fff}
  </style>
  <g id="Layer_2_1_">
    <g id="Layer_1-2">
      <path d="M97,200C41.8,198.3-1.6,152.3,0,97.1s47.7-98.6,102.9-97c55.2,1.6,98.6,47.7,97,102.8 c-1.5,55.2-47.5,98.6-102.7,97.1C97.2,200,97.1,200,97,200z M99.9,180.7c44.6,0.1,80.8-36,80.8-80.6c0.1-44.6-36-80.8-80.6-80.8 c-44.5-0.1-80.7,35.9-80.8,80.4c-0.2,44.5,35.7,80.8,80.3,81C99.7,180.7,99.8,180.7,99.9,180.7z" class="st0"/>
      <path d="M100 123c-3 0-5 0-8 0-5 0-6-2-6-6 0-9 4-17 11-22 4-2 7-4 11-6 2-1 4-3 6-4 4-4 4-9 0-13-7-7-19-6-26 0-2 2-4 4-6 6-2 3-5 3-8 1-3-3-7-5-10-8-3-2-3-5-1-7 17-25 49-27 69-10 14 12 16 33 3 45-4 4-9 7-14 10-4 2-7 5-7 10 0 3-2 5-5 5C106 123 103 123 100 123zM100 128c9 0 17 8 17 17 0 9-8 17-17 17-9 0-17-8-17-17C83 136 91 128 100 128z" class="st0"/>
    </g>
  </g>
</svg>
